<svg width="153" height="87" viewBox="0 0 153 87" fill="none" xmlns="http://www.w3.org/2000/svg">
<path d="M153 0V87H133.63V51.33H19.3697V87H0V0H19.3697V34.3029H133.63V0H153Z" fill="#213058"/>
<path d="M121.223 24.8572L57.6692 24.8572" stroke="#213058" stroke-width="8"/>
<ellipse cx="41.1923" cy="16.157" rx="14.1231" ry="13.6714" fill="#213058"/>
<path d="M39.05 64.4V77H36.134V71.834H30.41V77H27.494V64.4H30.41V69.368H36.134V64.4H39.05ZM48.1331 77.216C46.8251 77.216 45.6431 76.934 44.5871 76.37C43.5431 75.806 42.7211 75.032 42.1211 74.048C41.5331 73.052 41.2391 71.936 41.2391 70.7C41.2391 69.464 41.5331 68.354 42.1211 67.37C42.7211 66.374 43.5431 65.594 44.5871 65.03C45.6431 64.466 46.8251 64.184 48.1331 64.184C49.4411 64.184 50.6171 64.466 51.6611 65.03C52.7051 65.594 53.5271 66.374 54.1271 67.37C54.7271 68.354 55.0271 69.464 55.0271 70.7C55.0271 71.936 54.7271 73.052 54.1271 74.048C53.5271 75.032 52.7051 75.806 51.6611 76.37C50.6171 76.934 49.4411 77.216 48.1331 77.216ZM48.1331 74.732C48.8771 74.732 49.5491 74.564 50.1491 74.228C50.7491 73.88 51.2171 73.4 51.5531 72.788C51.9011 72.176 52.0751 71.48 52.0751 70.7C52.0751 69.92 51.9011 69.224 51.5531 68.612C51.2171 68 50.7491 67.526 50.1491 67.19C49.5491 66.842 48.8771 66.668 48.1331 66.668C47.3891 66.668 46.7171 66.842 46.1171 67.19C45.5171 67.526 45.0431 68 44.6951 68.612C44.3591 69.224 44.1911 69.92 44.1911 70.7C44.1911 71.48 44.3591 72.176 44.6951 72.788C45.0431 73.4 45.5171 73.88 46.1171 74.228C46.7171 74.564 47.3891 74.732 48.1331 74.732ZM57.2186 64.4H60.1346V74.624H66.4526V77H57.2186V64.4ZM68.0819 64.4H70.9979V77H68.0819V64.4ZM73.9881 64.4H79.7121C81.0801 64.4 82.2861 64.664 83.3301 65.192C84.3861 65.708 85.2021 66.44 85.7781 67.388C86.3661 68.336 86.6601 69.44 86.6601 70.7C86.6601 71.96 86.3661 73.064 85.7781 74.012C85.2021 74.96 84.3861 75.698 83.3301 76.226C82.2861 76.742 81.0801 77 79.7121 77H73.9881V64.4ZM79.5681 74.606C80.8281 74.606 81.8301 74.258 82.5741 73.562C83.3301 72.854 83.7081 71.9 83.7081 70.7C83.7081 69.5 83.3301 68.552 82.5741 67.856C81.8301 67.148 80.8281 66.794 79.5681 66.794H76.9041V74.606H79.5681ZM96.9815 74.3H91.1315L90.0155 77H87.0275L92.6435 64.4H95.5235L101.157 77H98.0975L96.9815 74.3ZM96.0635 72.086L94.0655 67.262L92.0675 72.086H96.0635ZM112.671 74.624V77H101.655V75.11L108.567 66.776H101.799V64.4H112.401V66.29L105.507 74.624H112.671ZM124.297 74.66V77H114.541V64.4H124.063V66.74H117.439V69.476H123.289V71.744H117.439V74.66H124.297Z" fill="black"/>
</svg>
