<svg width="45" height="27" viewBox="0 0 45 27" fill="none" xmlns="http://www.w3.org/2000/svg">
<path d="M45 0V27H39.303V15.93H5.69698V27H0V0H5.69698V10.6457H39.303V0H45Z" fill="black"/>
<path d="M36 8L17 8" stroke="black" stroke-width="3"/>
<ellipse cx="12" cy="5.5" rx="4" ry="4.5" fill="black"/>
<path d="M12.625 19.5V23H11.815V21.565H10.225V23H9.415V19.5H10.225V20.88H11.815V19.5H12.625ZM15.1481 23.06C14.7848 23.06 14.4564 22.9817 14.1631 22.825C13.8731 22.6683 13.6448 22.4533 13.4781 22.18C13.3148 21.9033 13.2331 21.5933 13.2331 21.25C13.2331 20.9067 13.3148 20.5983 13.4781 20.325C13.6448 20.0483 13.8731 19.8317 14.1631 19.675C14.4564 19.5183 14.7848 19.44 15.1481 19.44C15.5114 19.44 15.8381 19.5183 16.1281 19.675C16.4181 19.8317 16.6464 20.0483 16.8131 20.325C16.9798 20.5983 17.0631 20.9067 17.0631 21.25C17.0631 21.5933 16.9798 21.9033 16.8131 22.18C16.6464 22.4533 16.4181 22.6683 16.1281 22.825C15.8381 22.9817 15.5114 23.06 15.1481 23.06ZM15.1481 22.37C15.3548 22.37 15.5414 22.3233 15.7081 22.23C15.8748 22.1333 16.0048 22 16.0981 21.83C16.1948 21.66 16.2431 21.4667 16.2431 21.25C16.2431 21.0333 16.1948 20.84 16.0981 20.67C16.0048 20.5 15.8748 20.3683 15.7081 20.275C15.5414 20.1783 15.3548 20.13 15.1481 20.13C14.9414 20.13 14.7548 20.1783 14.5881 20.275C14.4214 20.3683 14.2898 20.5 14.1931 20.67C14.0998 20.84 14.0531 21.0333 14.0531 21.25C14.0531 21.4667 14.0998 21.66 14.1931 21.83C14.2898 22 14.4214 22.1333 14.5881 22.23C14.7548 22.3233 14.9414 22.37 15.1481 22.37ZM17.6718 19.5H18.4818V22.34H20.2368V23H17.6718V19.5ZM20.6894 19.5H21.4994V23H20.6894V19.5ZM22.33 19.5H23.92C24.3 19.5 24.635 19.5733 24.925 19.72C25.2184 19.8633 25.445 20.0667 25.605 20.33C25.7684 20.5933 25.85 20.9 25.85 21.25C25.85 21.6 25.7684 21.9067 25.605 22.17C25.445 22.4333 25.2184 22.6383 24.925 22.785C24.635 22.9283 24.3 23 23.92 23H22.33V19.5ZM23.88 22.335C24.23 22.335 24.5084 22.2383 24.715 22.045C24.925 21.8483 25.03 21.5833 25.03 21.25C25.03 20.9167 24.925 20.6533 24.715 20.46C24.5084 20.2633 24.23 20.165 23.88 20.165H23.14V22.335H23.88ZM28.7171 22.25H27.0921L26.7821 23H25.9521L27.5121 19.5H28.3121L29.8771 23H29.0271L28.7171 22.25ZM28.4621 21.635L27.9071 20.295L27.3521 21.635H28.4621ZM33.0752 22.34V23H30.0152V22.475L31.9352 20.16H30.0552V19.5H33.0002V20.025L31.0852 22.34H33.0752ZM36.3047 22.35V23H33.5947V19.5H36.2397V20.15H34.3997V20.91H36.0247V21.54H34.3997V22.35H36.3047Z" fill="black"/>
</svg>
