<svg width="153" height="87" viewBox="0 0 153 87" fill="none" xmlns="http://www.w3.org/2000/svg">
<path d="M153 0V87H133.63V51.33H19.3697V87H0V0H19.3697V34.3029H133.63V0H153Z" fill="black"/>
<path d="M121.223 24.8571L57.6692 24.8571" stroke="black" stroke-width="8"/>
<ellipse cx="41.1923" cy="16.1571" rx="14.1231" ry="13.6714" fill="black"/>
<path d="M37.7654 64.0572V76.6572H34.8494V71.4912H29.1254V76.6572H26.2094V64.0572H29.1254V69.0252H34.8494V64.0572H37.7654ZM46.8485 76.8732C45.5405 76.8732 44.3585 76.5912 43.3025 76.0272C42.2585 75.4632 41.4365 74.6892 40.8365 73.7052C40.2485 72.7092 39.9545 71.5932 39.9545 70.3572C39.9545 69.1212 40.2485 68.0112 40.8365 67.0272C41.4365 66.0312 42.2585 65.2512 43.3025 64.6872C44.3585 64.1232 45.5405 63.8412 46.8485 63.8412C48.1565 63.8412 49.3325 64.1232 50.3765 64.6872C51.4205 65.2512 52.2425 66.0312 52.8425 67.0272C53.4425 68.0112 53.7425 69.1212 53.7425 70.3572C53.7425 71.5932 53.4425 72.7092 52.8425 73.7052C52.2425 74.6892 51.4205 75.4632 50.3765 76.0272C49.3325 76.5912 48.1565 76.8732 46.8485 76.8732ZM46.8485 74.3892C47.5925 74.3892 48.2645 74.2212 48.8645 73.8852C49.4645 73.5372 49.9325 73.0572 50.2685 72.4452C50.6165 71.8332 50.7905 71.1372 50.7905 70.3572C50.7905 69.5772 50.6165 68.8812 50.2685 68.2692C49.9325 67.6572 49.4645 67.1832 48.8645 66.8472C48.2645 66.4992 47.5925 66.3252 46.8485 66.3252C46.1045 66.3252 45.4325 66.4992 44.8325 66.8472C44.2325 67.1832 43.7585 67.6572 43.4105 68.2692C43.0745 68.8812 42.9065 69.5772 42.9065 70.3572C42.9065 71.1372 43.0745 71.8332 43.4105 72.4452C43.7585 73.0572 44.2325 73.5372 44.8325 73.8852C45.4325 74.2212 46.1045 74.3892 46.8485 74.3892ZM55.934 64.0572H58.85V74.2812H65.168V76.6572H55.934V64.0572ZM66.7973 64.0572H69.7133V76.6572H66.7973V64.0572ZM72.7035 64.0572H78.4275C79.7955 64.0572 81.0015 64.3212 82.0455 64.8492C83.1015 65.3652 83.9175 66.0972 84.4935 67.0452C85.0815 67.9932 85.3755 69.0972 85.3755 70.3572C85.3755 71.6172 85.0815 72.7212 84.4935 73.6692C83.9175 74.6172 83.1015 75.3552 82.0455 75.8832C81.0015 76.3992 79.7955 76.6572 78.4275 76.6572H72.7035V64.0572ZM78.2835 74.2632C79.5435 74.2632 80.5455 73.9152 81.2895 73.2192C82.0455 72.5112 82.4235 71.5572 82.4235 70.3572C82.4235 69.1572 82.0455 68.2092 81.2895 67.5132C80.5455 66.8052 79.5435 66.4512 78.2835 66.4512H75.6195V74.2632H78.2835ZM95.6968 73.9572H89.8468L88.7308 76.6572H85.7428L91.3588 64.0572H94.2388L99.8728 76.6572H96.8128L95.6968 73.9572ZM94.7788 71.7432L92.7808 66.9192L90.7828 71.7432H94.7788ZM111.386 74.2812V76.6572H100.37V74.7672L107.282 66.4332H100.514V64.0572H111.116V65.9472L104.222 74.2812H111.386ZM123.012 74.3172V76.6572H113.256V64.0572H122.778V66.3972H116.154V69.1332H122.004V71.4012H116.154V74.3172H123.012Z" fill="black"/>
</svg>
